<svg width="71" height="35" viewBox="0 0 71 35" fill="none" xmlns="http://www.w3.org/2000/svg">
<path d="M32.4732 35H4.8293C1.8032 35 -0.399615 32.1343 0.383379 29.2155L7.30791 3.40614C7.84661 1.39701 9.67032 0 11.7533 0H19.5616L13.2604 23.4882C13.1039 24.072 13.5445 24.6449 14.1498 24.6449H28.989L28.988 24.6495H28.9792L28.9849 24.6609L32.4732 34.9995V35Z" fill="#FF1D43"/>
<path d="M70.3207 5.78451L63.3966 31.5939C62.8574 33.603 61.0342 35 58.9507 35H52.0438L58.9549 9.23759L57.7943 6.81693L50.233 35H40.2901L47.195 9.26131L46.0365 6.81641L38.4757 35H34.2988L30.8053 24.6501H30.8017L30.8033 24.6454L34.9372 9.23501L29.7744 0H65.8747C68.9008 0 71.1031 2.8657 70.3207 5.78451Z" fill="#FF1D43"/>
</svg>
